[
  {
    "track": 1,
    "start": 1.199998,
    "end": 1.5987473354166668,
    "pitch": 60,
    "velocity": 80
  },
  {
    "track": 1,
    "start": 1.5999973333333333,
    "end": 1.7987470020833334,
    "pitch": 60,
    "velocity": 80
  },
  {
    "track": 1,
    "start": 1.799997,
    "end": 2.398746002083333,
    "pitch": 62,
    "velocity": 80
  },
  {
    "track": 1,
    "start": 2.399996,
    "end": 2.998745002083333,
    "pitch": 60,
    "velocity": 80
  },
  {
    "track": 1,
    "start": 2.999995,
    "end": 3.598744002083333,
    "pitch": 65,
    "velocity": 80
  },
  {
    "track": 1,
    "start": 3.599994,
    "end": 4.798742002083333,
    "pitch": 64,
    "velocity": 80
  },
  {
    "track": 1,
    "start": 4.799992,
    "end": 5.198741335416666,
    "pitch": 60,
    "velocity": 80
  },
  {
    "track": 1,
    "start": 5.199991333333333,
    "end": 5.398741002083333,
    "pitch": 60,
    "velocity": 80
  },
  {
    "track": 1,
    "start": 5.399991,
    "end": 5.998740002083333,
    "pitch": 62,
    "velocity": 80
  },
  {
    "track": 1,
    "start": 5.99999,
    "end": 6.598739002083334,
    "pitch": 60,
    "velocity": 80
  },
  {
    "track": 1,
    "start": 6.599989,
    "end": 7.198738002083333,
    "pitch": 67,
    "velocity": 80
  },
  {
    "track": 1,
    "start": 7.199988,
    "end": 8.398736002083334,
    "pitch": 65,
    "velocity": 80
  },
  {
    "track": 1,
    "start": 8.399986,
    "end": 8.798735335416668,
    "pitch": 60,
    "velocity": 80
  },
  {
    "track": 1,
    "start": 8.799985333333334,
    "end": 8.998735002083333,
    "pitch": 60,
    "velocity": 80
  },
  {
    "track": 1,
    "start": 8.999985,
    "end": 9.598734002083333,
    "pitch": 72,
    "velocity": 80
  },
  {
    "track": 1,
    "start": 9.599984,
    "end": 10.198733002083333,
    "pitch": 69,
    "velocity": 80
  },
  {
    "track": 1,
    "start": 10.199983,
    "end": 10.798732002083334,
    "pitch": 65,
    "velocity": 80
  },
  {
    "track": 1,
    "start": 10.799982,
    "end": 11.398731002083332,
    "pitch": 64,
    "velocity": 80
  },
  {
    "track": 1,
    "start": 11.399981,
    "end": 11.998730002083333,
    "pitch": 62,
    "velocity": 80
  },
  {
    "track": 1,
    "start": 11.99998,
    "end": 12.398729335416666,
    "pitch": 70,
    "velocity": 80
  },
  {
    "track": 1,
    "start": 12.399979333333334,
    "end": 12.598729002083333,
    "pitch": 70,
    "velocity": 80
  },
  {
    "track": 1,
    "start": 12.599979,
    "end": 13.198728002083334,
    "pitch": 69,
    "velocity": 80
  },
  {
    "track": 1,
    "start": 13.199978,
    "end": 13.798727002083334,
    "pitch": 65,
    "velocity": 80
  },
  {
    "track": 1,
    "start": 13.799977,
    "end": 14.398726002083333,
    "pitch": 67,
    "velocity": 80
  },
  {
    "track": 1,
    "start": 14.399976,
    "end": 16.198723002083334,
    "pitch": 65,
    "velocity": 80
  }
]