[
  {
    "track": 1,
    "start": 1.199998,
    "pitch": 60,
    "velocity": 80,
    "duration": 0.3987493354166669
  },
  {
    "track": 1,
    "start": 1.5999973333333333,
    "pitch": 60,
    "velocity": 80,
    "duration": 0.1987496687500001
  },
  {
    "track": 1,
    "start": 1.799997,
    "pitch": 62,
    "velocity": 80,
    "duration": 0.598749002083333
  },
  {
    "track": 1,
    "start": 2.399996,
    "pitch": 60,
    "velocity": 80,
    "duration": 0.5987490020833333
  },
  {
    "track": 1,
    "start": 2.999995,
    "pitch": 65,
    "velocity": 80,
    "duration": 0.5987490020833328
  },
  {
    "track": 1,
    "start": 3.599994,
    "pitch": 64,
    "velocity": 80,
    "duration": 1.1987480020833332
  },
  {
    "track": 1,
    "start": 4.799992,
    "pitch": 60,
    "velocity": 80,
    "duration": 0.39874933541666646
  },
  {
    "track": 1,
    "start": 5.199991333333333,
    "pitch": 60,
    "velocity": 80,
    "duration": 0.19874966874999966
  },
  {
    "track": 1,
    "start": 5.399991,
    "pitch": 62,
    "velocity": 80,
    "duration": 0.5987490020833333
  },
  {
    "track": 1,
    "start": 5.99999,
    "pitch": 60,
    "velocity": 80,
    "duration": 0.5987490020833333
  },
  {
    "track": 1,
    "start": 6.599989,
    "pitch": 67,
    "velocity": 80,
    "duration": 0.5987490020833333
  },
  {
    "track": 1,
    "start": 7.199988,
    "pitch": 65,
    "velocity": 80,
    "duration": 1.1987480020833337
  },
  {
    "track": 1,
    "start": 8.399986,
    "pitch": 60,
    "velocity": 80,
    "duration": 0.39874933541666735
  },
  {
    "track": 1,
    "start": 8.799985333333334,
    "pitch": 60,
    "velocity": 80,
    "duration": 0.19874966874999878
  },
  {
    "track": 1,
    "start": 8.999985,
    "pitch": 72,
    "velocity": 80,
    "duration": 0.5987490020833324
  },
  {
    "track": 1,
    "start": 9.599984,
    "pitch": 69,
    "velocity": 80,
    "duration": 0.5987490020833341
  },
  {
    "track": 1,
    "start": 10.199983,
    "pitch": 65,
    "velocity": 80,
    "duration": 0.5987490020833341
  },
  {
    "track": 1,
    "start": 10.799982,
    "pitch": 64,
    "velocity": 80,
    "duration": 0.5987490020833324
  },
  {
    "track": 1,
    "start": 11.399981,
    "pitch": 62,
    "velocity": 80,
    "duration": 0.5987490020833324
  },
  {
    "track": 1,
    "start": 11.99998,
    "pitch": 70,
    "velocity": 80,
    "duration": 0.3987493354166656
  },
  {
    "track": 1,
    "start": 12.399979333333334,
    "pitch": 70,
    "velocity": 80,
    "duration": 0.19874966874999878
  },
  {
    "track": 1,
    "start": 12.599979,
    "pitch": 69,
    "velocity": 80,
    "duration": 0.5987490020833341
  },
  {
    "track": 1,
    "start": 13.199978,
    "pitch": 65,
    "velocity": 80,
    "duration": 0.5987490020833341
  },
  {
    "track": 1,
    "start": 13.799977,
    "pitch": 67,
    "velocity": 80,
    "duration": 0.5987490020833324
  },
  {
    "track": 1,
    "start": 14.399976,
    "pitch": 65,
    "velocity": 80,
    "duration": 1.7987470020833332
  }
]