[
  {
    "track": 3,
    "start": 0.0,
    "pitch": 60,
    "velocity": 80,
    "duration": 0.5987490020833334
  },
  {
    "track": 3,
    "start": 0.599999,
    "pitch": 59,
    "velocity": 80,
    "duration": 0.5987490020833335
  },
  {
    "track": 1,
    "start": 1.199998,
    "pitch": 60,
    "velocity": 80,
    "duration": 0.3787493687500001
  },
  {
    "track": 2,
    "start": 1.199998,
    "pitch": 48,
    "velocity": 80,
    "duration": 0.3787493687500001
  },
  {
    "track": 3,
    "start": 1.199998,
    "pitch": 58,
    "velocity": 80,
    "duration": 0.3987493354166669
  },
  {
    "track": 3,
    "start": 1.199998,
    "pitch": 60,
    "velocity": 80,
    "duration": 0.3987493354166669
  },
  {
    "track": 4,
    "start": 1.199998,
    "pitch": 48,
    "velocity": 80,
    "duration": 0.5987490020833335
  },
  {
    "track": 4,
    "start": 1.199998,
    "pitch": 52,
    "velocity": 80,
    "duration": 0.5987490020833335
  },
  {
    "track": 4,
    "start": 1.199998,
    "pitch": 55,
    "velocity": 80,
    "duration": 0.5987490020833335
  },
  {
    "track": 1,
    "start": 1.5999973333333333,
    "pitch": 60,
    "velocity": 80,
    "duration": 0.1887496854166668
  },
  {
    "track": 2,
    "start": 1.5999973333333333,
    "pitch": 48,
    "velocity": 80,
    "duration": 0.1887496854166668
  },
  {
    "track": 3,
    "start": 1.5999973333333333,
    "pitch": 60,
    "velocity": 80,
    "duration": 0.1987496687500001
  },
  {
    "track": 1,
    "start": 1.799997,
    "pitch": 62,
    "velocity": 80,
    "duration": 0.5687490520833334
  },
  {
    "track": 2,
    "start": 1.799997,
    "pitch": 50,
    "velocity": 80,
    "duration": 0.5687490520833334
  },
  {
    "track": 3,
    "start": 1.799997,
    "pitch": 62,
    "velocity": 80,
    "duration": 0.598749002083333
  },
  {
    "track": 4,
    "start": 1.799997,
    "pitch": 48,
    "velocity": 80,
    "duration": 1.798747002083333
  },
  {
    "track": 4,
    "start": 1.799997,
    "pitch": 53,
    "velocity": 80,
    "duration": 1.798747002083333
  },
  {
    "track": 4,
    "start": 1.799997,
    "pitch": 57,
    "velocity": 80,
    "duration": 1.798747002083333
  },
  {
    "track": 1,
    "start": 2.399996,
    "pitch": 60,
    "velocity": 80,
    "duration": 0.5687490520833336
  },
  {
    "track": 2,
    "start": 2.399996,
    "pitch": 48,
    "velocity": 80,
    "duration": 0.5687490520833336
  },
  {
    "track": 3,
    "start": 2.399996,
    "pitch": 60,
    "velocity": 80,
    "duration": 0.5987490020833333
  },
  {
    "track": 1,
    "start": 2.999995,
    "pitch": 65,
    "velocity": 80,
    "duration": 0.5687490520833332
  },
  {
    "track": 2,
    "start": 2.999995,
    "pitch": 53,
    "velocity": 80,
    "duration": 0.5687490520833332
  },
  {
    "track": 3,
    "start": 2.999995,
    "pitch": 65,
    "velocity": 80,
    "duration": 0.5987490020833328
  },
  {
    "track": 1,
    "start": 3.599994,
    "pitch": 64,
    "velocity": 80,
    "duration": 1.1387481020833339
  },
  {
    "track": 2,
    "start": 3.599994,
    "pitch": 52,
    "velocity": 80,
    "duration": 1.1387481020833339
  },
  {
    "track": 3,
    "start": 3.599994,
    "pitch": 64,
    "velocity": 80,
    "duration": 1.1987480020833332
  },
  {
    "track": 4,
    "start": 3.599994,
    "pitch": 48,
    "velocity": 80,
    "duration": 1.7987470020833327
  },
  {
    "track": 4,
    "start": 3.599994,
    "pitch": 52,
    "velocity": 80,
    "duration": 1.7987470020833327
  },
  {
    "track": 4,
    "start": 3.599994,
    "pitch": 55,
    "velocity": 80,
    "duration": 1.7987470020833327
  },
  {
    "track": 1,
    "start": 4.799992,
    "pitch": 60,
    "velocity": 80,
    "duration": 0.3787493687500012
  },
  {
    "track": 2,
    "start": 4.799992,
    "pitch": 48,
    "velocity": 80,
    "duration": 0.3787493687500012
  },
  {
    "track": 3,
    "start": 4.799992,
    "pitch": 60,
    "velocity": 80,
    "duration": 0.39874933541666646
  },
  {
    "track": 1,
    "start": 5.199991333333333,
    "pitch": 60,
    "velocity": 80,
    "duration": 0.18874968541666703
  },
  {
    "track": 2,
    "start": 5.199991333333333,
    "pitch": 48,
    "velocity": 80,
    "duration": 0.18874968541666703
  },
  {
    "track": 3,
    "start": 5.199991333333333,
    "pitch": 60,
    "velocity": 80,
    "duration": 0.19874966874999966
  },
  {
    "track": 1,
    "start": 5.399991,
    "pitch": 62,
    "velocity": 80,
    "duration": 0.5687490520833327
  },
  {
    "track": 2,
    "start": 5.399991,
    "pitch": 60,
    "velocity": 80,
    "duration": 0.5687490520833327
  },
  {
    "track": 3,
    "start": 5.399991,
    "pitch": 62,
    "velocity": 80,
    "duration": 0.5987490020833333
  },
  {
    "track": 4,
    "start": 5.399991,
    "pitch": 48,
    "velocity": 80,
    "duration": 1.7987470020833332
  },
  {
    "track": 4,
    "start": 5.399991,
    "pitch": 52,
    "velocity": 80,
    "duration": 1.7987470020833332
  },
  {
    "track": 4,
    "start": 5.399991,
    "pitch": 55,
    "velocity": 80,
    "duration": 1.7987470020833332
  },
  {
    "track": 1,
    "start": 5.99999,
    "pitch": 60,
    "velocity": 80,
    "duration": 0.5687490520833327
  },
  {
    "track": 2,
    "start": 5.99999,
    "pitch": 59,
    "velocity": 80,
    "duration": 0.5687490520833327
  },
  {
    "track": 3,
    "start": 5.99999,
    "pitch": 60,
    "velocity": 80,
    "duration": 0.5987490020833333
  },
  {
    "track": 1,
    "start": 6.599989,
    "pitch": 67,
    "velocity": 80,
    "duration": 0.5687490520833327
  },
  {
    "track": 2,
    "start": 6.599989,
    "pitch": 58,
    "velocity": 80,
    "duration": 0.5687490520833327
  },
  {
    "track": 3,
    "start": 6.599989,
    "pitch": 67,
    "velocity": 80,
    "duration": 0.5987490020833333
  },
  {
    "track": 1,
    "start": 7.199988,
    "pitch": 65,
    "velocity": 80,
    "duration": 1.1387481020833343
  },
  {
    "track": 2,
    "start": 7.199988,
    "pitch": 57,
    "velocity": 80,
    "duration": 1.1387481020833343
  },
  {
    "track": 3,
    "start": 7.199988,
    "pitch": 65,
    "velocity": 80,
    "duration": 1.1987480020833337
  },
  {
    "track": 4,
    "start": 7.199988,
    "pitch": 48,
    "velocity": 80,
    "duration": 1.7987470020833323
  },
  {
    "track": 4,
    "start": 7.199988,
    "pitch": 53,
    "velocity": 80,
    "duration": 1.7987470020833323
  },
  {
    "track": 4,
    "start": 7.199988,
    "pitch": 57,
    "velocity": 80,
    "duration": 1.7987470020833323
  },
  {
    "track": 1,
    "start": 8.399986,
    "pitch": 60,
    "velocity": 80,
    "duration": 0.3787493687500003
  },
  {
    "track": 1,
    "start": 8.399986,
    "pitch": 64,
    "velocity": 80,
    "duration": 0.3787493687500003
  },
  {
    "track": 2,
    "start": 8.399986,
    "pitch": 48,
    "velocity": 80,
    "duration": 0.3787493687500003
  },
  {
    "track": 2,
    "start": 8.399986,
    "pitch": 55,
    "velocity": 80,
    "duration": 0.3787493687500003
  },
  {
    "track": 3,
    "start": 8.399986,
    "pitch": 60,
    "velocity": 80,
    "duration": 0.39874933541666735
  },
  {
    "track": 1,
    "start": 8.799985333333334,
    "pitch": 60,
    "velocity": 80,
    "duration": 0.18874968541666703
  },
  {
    "track": 1,
    "start": 8.799985333333334,
    "pitch": 64,
    "velocity": 80,
    "duration": 0.18874968541666703
  },
  {
    "track": 2,
    "start": 8.799985333333334,
    "pitch": 48,
    "velocity": 80,
    "duration": 0.18874968541666703
  },
  {
    "track": 2,
    "start": 8.799985333333334,
    "pitch": 55,
    "velocity": 80,
    "duration": 0.18874968541666703
  },
  {
    "track": 3,
    "start": 8.799985333333334,
    "pitch": 60,
    "velocity": 80,
    "duration": 0.19874966874999878
  },
  {
    "track": 1,
    "start": 8.999985,
    "pitch": 72,
    "velocity": 80,
    "duration": 0.5687490520833336
  },
  {
    "track": 1,
    "start": 8.999985,
    "pitch": 77,
    "velocity": 80,
    "duration": 0.5687490520833336
  },
  {
    "track": 2,
    "start": 8.999985,
    "pitch": 53,
    "velocity": 80,
    "duration": 0.5687490520833336
  },
  {
    "track": 2,
    "start": 8.999985,
    "pitch": 57,
    "velocity": 80,
    "duration": 0.5687490520833336
  },
  {
    "track": 3,
    "start": 8.999985,
    "pitch": 72,
    "velocity": 80,
    "duration": 0.5987490020833324
  },
  {
    "track": 4,
    "start": 8.999985,
    "pitch": 48,
    "velocity": 80,
    "duration": 1.7987470020833332
  },
  {
    "track": 4,
    "start": 8.999985,
    "pitch": 53,
    "velocity": 80,
    "duration": 1.7987470020833332
  },
  {
    "track": 4,
    "start": 8.999985,
    "pitch": 57,
    "velocity": 80,
    "duration": 1.7987470020833332
  },
  {
    "track": 1,
    "start": 9.599984,
    "pitch": 69,
    "velocity": 80,
    "duration": 0.5687490520833354
  },
  {
    "track": 1,
    "start": 9.599984,
    "pitch": 72,
    "velocity": 80,
    "duration": 0.5687490520833354
  },
  {
    "track": 2,
    "start": 9.599984,
    "pitch": 53,
    "velocity": 80,
    "duration": 0.5687490520833354
  },
  {
    "track": 2,
    "start": 9.599984,
    "pitch": 60,
    "velocity": 80,
    "duration": 0.5687490520833354
  },
  {
    "track": 3,
    "start": 9.599984,
    "pitch": 69,
    "velocity": 80,
    "duration": 0.5987490020833341
  },
  {
    "track": 1,
    "start": 10.199983,
    "pitch": 65,
    "velocity": 80,
    "duration": 0.5687490520833336
  },
  {
    "track": 1,
    "start": 10.199983,
    "pitch": 75,
    "velocity": 80,
    "duration": 0.5687490520833336
  },
  {
    "track": 2,
    "start": 10.199983,
    "pitch": 48,
    "velocity": 80,
    "duration": 0.5687490520833336
  },
  {
    "track": 2,
    "start": 10.199983,
    "pitch": 53,
    "velocity": 80,
    "duration": 0.5687490520833336
  },
  {
    "track": 3,
    "start": 10.199983,
    "pitch": 65,
    "velocity": 80,
    "duration": 0.5987490020833341
  },
  {
    "track": 1,
    "start": 10.799982,
    "pitch": 64,
    "velocity": 80,
    "duration": 0.5687490520833336
  },
  {
    "track": 1,
    "start": 10.799982,
    "pitch": 74,
    "velocity": 80,
    "duration": 0.5687490520833336
  },
  {
    "track": 2,
    "start": 10.799982,
    "pitch": 53,
    "velocity": 80,
    "duration": 0.5687490520833336
  },
  {
    "track": 2,
    "start": 10.799982,
    "pitch": 58,
    "velocity": 80,
    "duration": 0.5687490520833336
  },
  {
    "track": 3,
    "start": 10.799982,
    "pitch": 64,
    "velocity": 80,
    "duration": 0.5987490020833324
  },
  {
    "track": 4,
    "start": 10.799982,
    "pitch": 50,
    "velocity": 80,
    "duration": 1.7987470020833332
  },
  {
    "track": 4,
    "start": 10.799982,
    "pitch": 53,
    "velocity": 80,
    "duration": 1.7987470020833332
  },
  {
    "track": 4,
    "start": 10.799982,
    "pitch": 58,
    "velocity": 80,
    "duration": 1.7987470020833332
  },
  {
    "track": 1,
    "start": 11.399981,
    "pitch": 62,
    "velocity": 80,
    "duration": 0.5687490520833336
  },
  {
    "track": 1,
    "start": 11.399981,
    "pitch": 70,
    "velocity": 80,
    "duration": 0.5687490520833336
  },
  {
    "track": 2,
    "start": 11.399981,
    "pitch": 46,
    "velocity": 80,
    "duration": 0.5687490520833336
  },
  {
    "track": 2,
    "start": 11.399981,
    "pitch": 53,
    "velocity": 80,
    "duration": 0.5687490520833336
  },
  {
    "track": 3,
    "start": 11.399981,
    "pitch": 62,
    "velocity": 80,
    "duration": 0.5987490020833324
  },
  {
    "track": 1,
    "start": 11.99998,
    "pitch": 70,
    "velocity": 80,
    "duration": 0.3787493687500003
  },
  {
    "track": 1,
    "start": 11.99998,
    "pitch": 74,
    "velocity": 80,
    "duration": 0.3787493687500003
  },
  {
    "track": 2,
    "start": 11.99998,
    "pitch": 53,
    "velocity": 80,
    "duration": 0.3787493687500003
  },
  {
    "track": 2,
    "start": 11.99998,
    "pitch": 58,
    "velocity": 80,
    "duration": 0.3787493687500003
  },
  {
    "track": 3,
    "start": 11.99998,
    "pitch": 70,
    "velocity": 80,
    "duration": 0.3987493354166656
  },
  {
    "track": 1,
    "start": 12.399979333333334,
    "pitch": 70,
    "velocity": 80,
    "duration": 0.18874968541666703
  },
  {
    "track": 1,
    "start": 12.399979333333334,
    "pitch": 74,
    "velocity": 80,
    "duration": 0.18874968541666703
  },
  {
    "track": 2,
    "start": 12.399979333333334,
    "pitch": 53,
    "velocity": 80,
    "duration": 0.18874968541666703
  },
  {
    "track": 2,
    "start": 12.399979333333334,
    "pitch": 55,
    "velocity": 80,
    "duration": 0.18874968541666703
  },
  {
    "track": 3,
    "start": 12.399979333333334,
    "pitch": 70,
    "velocity": 80,
    "duration": 0.19874966874999878
  },
  {
    "track": 1,
    "start": 12.599979,
    "pitch": 69,
    "velocity": 80,
    "duration": 0.5687490520833354
  },
  {
    "track": 1,
    "start": 12.599979,
    "pitch": 72,
    "velocity": 80,
    "duration": 0.5687490520833354
  },
  {
    "track": 2,
    "start": 12.599979,
    "pitch": 53,
    "velocity": 80,
    "duration": 0.5687490520833354
  },
  {
    "track": 2,
    "start": 12.599979,
    "pitch": 60,
    "velocity": 80,
    "duration": 0.5687490520833354
  },
  {
    "track": 3,
    "start": 12.599979,
    "pitch": 69,
    "velocity": 80,
    "duration": 0.5987490020833341
  },
  {
    "track": 4,
    "start": 12.599979,
    "pitch": 48,
    "velocity": 80,
    "duration": 1.1987480020833345
  },
  {
    "track": 4,
    "start": 12.599979,
    "pitch": 53,
    "velocity": 80,
    "duration": 1.1987480020833345
  },
  {
    "track": 4,
    "start": 12.599979,
    "pitch": 57,
    "velocity": 80,
    "duration": 1.1987480020833345
  },
  {
    "track": 1,
    "start": 13.199978,
    "pitch": 65,
    "velocity": 80,
    "duration": 0.5687490520833336
  },
  {
    "track": 1,
    "start": 13.199978,
    "pitch": 77,
    "velocity": 80,
    "duration": 0.5687490520833336
  },
  {
    "track": 2,
    "start": 13.199978,
    "pitch": 50,
    "velocity": 80,
    "duration": 0.5687490520833336
  },
  {
    "track": 2,
    "start": 13.199978,
    "pitch": 57,
    "velocity": 80,
    "duration": 0.5687490520833336
  },
  {
    "track": 3,
    "start": 13.199978,
    "pitch": 65,
    "velocity": 80,
    "duration": 0.5987490020833341
  },
  {
    "track": 1,
    "start": 13.799977,
    "pitch": 67,
    "velocity": 80,
    "duration": 0.5687490520833336
  },
  {
    "track": 1,
    "start": 13.799977,
    "pitch": 76,
    "velocity": 80,
    "duration": 0.5687490520833336
  },
  {
    "track": 2,
    "start": 13.799977,
    "pitch": 48,
    "velocity": 80,
    "duration": 0.5687490520833336
  },
  {
    "track": 2,
    "start": 13.799977,
    "pitch": 58,
    "velocity": 80,
    "duration": 0.5687490520833336
  },
  {
    "track": 3,
    "start": 13.799977,
    "pitch": 67,
    "velocity": 80,
    "duration": 0.5987490020833324
  },
  {
    "track": 4,
    "start": 13.799977,
    "pitch": 48,
    "velocity": 80,
    "duration": 0.5987490020833324
  },
  {
    "track": 4,
    "start": 13.799977,
    "pitch": 52,
    "velocity": 80,
    "duration": 0.5987490020833324
  },
  {
    "track": 4,
    "start": 13.799977,
    "pitch": 55,
    "velocity": 80,
    "duration": 0.5987490020833324
  },
  {
    "track": 1,
    "start": 14.399976,
    "pitch": 69,
    "velocity": 80,
    "duration": 1.7087471520833315
  },
  {
    "track": 1,
    "start": 14.399976,
    "pitch": 77,
    "velocity": 80,
    "duration": 1.7087471520833315
  },
  {
    "track": 2,
    "start": 14.399976,
    "pitch": 53,
    "velocity": 80,
    "duration": 1.7087471520833315
  },
  {
    "track": 2,
    "start": 14.399976,
    "pitch": 60,
    "velocity": 80,
    "duration": 1.7087471520833315
  },
  {
    "track": 3,
    "start": 14.399976,
    "pitch": 65,
    "velocity": 80,
    "duration": 0.19874966874999878
  },
  {
    "track": 4,
    "start": 14.399976,
    "pitch": 48,
    "velocity": 80,
    "duration": 1.7987470020833332
  },
  {
    "track": 4,
    "start": 14.399976,
    "pitch": 53,
    "velocity": 80,
    "duration": 1.7987470020833332
  },
  {
    "track": 4,
    "start": 14.399976,
    "pitch": 57,
    "velocity": 80,
    "duration": 1.7987470020833332
  },
  {
    "track": 3,
    "start": 14.599975666666666,
    "pitch": 69,
    "velocity": 80,
    "duration": 0.19874966875000233
  },
  {
    "track": 3,
    "start": 14.799975333333334,
    "pitch": 72,
    "velocity": 80,
    "duration": 0.19874966874999878
  },
  {
    "track": 3,
    "start": 14.999975,
    "pitch": 77,
    "velocity": 80,
    "duration": 0.19874966875000055
  },
  {
    "track": 3,
    "start": 15.199974666666666,
    "pitch": 81,
    "velocity": 80,
    "duration": 0.19874966875000055
  },
  {
    "track": 3,
    "start": 15.399974333333335,
    "pitch": 84,
    "velocity": 80,
    "duration": 0.19874966874999878
  },
  {
    "track": 3,
    "start": 15.599974,
    "pitch": 89,
    "velocity": 80,
    "duration": 0.19874966875000055
  },
  {
    "track": 3,
    "start": 15.799973666666666,
    "pitch": 93,
    "velocity": 80,
    "duration": 0.19874966875000055
  },
  {
    "track": 3,
    "start": 15.999973333333333,
    "pitch": 96,
    "velocity": 80,
    "duration": 0.19874966875000055
  },
  {
    "track": 3,
    "start": 16.199973,
    "pitch": 101,
    "velocity": 80,
    "duration": 0.2987495020833322
  },
  {
    "track": 4,
    "start": 16.199973,
    "pitch": 41,
    "velocity": 80,
    "duration": 0.14874975208333296
  }
]